# xmcd
#
# Track frame offsets:
#	150
#	28179
#	49315
#	78061
#	102130
#	127381
#	159282
#	184633
#	210492
#	236122
#
# Disc length: 3452 seconds
#
# Revision: 2
# Processed by: cddbd v1.5.2PL0 Copyright (c) Steve Scherf et al.
# Submitted via: EZCDAudioConverter 8.0.2.1
#
DISCID=800d7a0a
DTITLE=Hồng Trúc - 4. Đôi Bóng
DYEAR=2000
DGENRE=country
TTITLE0=Đôi Bóng
TTITLE1=Nỗi buồn gác trọ
TTITLE2=20 năm tình đẹp mùa chôm chôm
TTITLE3=Cánh thiệp hồng
TTITLE4=Hạ thương
TTITLE5=Chuyện người con gái hái sim
TTITLE6=Chiều đồng quê
TTITLE7=Một chuyến xe hoa
TTITLE8=Ăn năn
TTITLE9=Hà Tiên
EXTD=
EXTT0=
EXTT1=
EXTT2=
EXTT3=
EXTT4=
EXTT5=
EXTT6=
EXTT7=
EXTT8=
EXTT9=
PLAYORDER=
